<svg width="24" height="24" viewBox="0 0 32 32" xmlns="http://www.w3.org/2000/svg" data-marker="SocialIcon.Social"><path d="M0 6.667v18.666A6.667 6.667 0 0 0 6.667 32h18.666A6.667 6.667 0 0 0 32 25.333V6.667A6.667 6.667 0 0 0 25.333 0H6.667A6.667 6.667 0 0 0 0 6.667zm24.232 3.342a8.413 8.413 0 0 0 2.435-.673 8.546 8.546 0 0 1-2.12 2.21l.014.554c0 5.649-4.264 12.162-12.062 12.162-2.395 0-4.623-.708-6.499-1.922.332.038.669.059 1.011.059a8.463 8.463 0 0 0 5.266-1.829 4.25 4.25 0 0 1-3.96-2.968 4.2 4.2 0 0 0 1.915-.072 4.27 4.27 0 0 1-3.4-4.192v-.053c.572.32 1.225.512 1.92.536a4.282 4.282 0 0 1-1.886-3.558c0-.783.208-1.518.574-2.148 2.09 2.586 5.215 4.288 8.738 4.466a4.322 4.322 0 0 1-.11-.974c0-2.36 1.899-4.274 4.24-4.274 1.22 0 2.322.519 3.094 1.35a8.494 8.494 0 0 0 2.694-1.037 4.286 4.286 0 0 1-1.864 2.363z"/></svg>