<svg xmlns="http://www.w3.org/2000/svg" width="136" height="40" fill="none"><rect width="136" height="40" rx="8" fill="#000"/><path d="m45.734 25.166-2.218-5.995-2.209 5.995h4.427ZM38 29.613l4.6-12.05h1.842l4.6 12.05h-1.7l-1.098-3.093h-5.426l-1.099 3.093H38Zm14.166-1.354v4.792H50.68V20.573h1.485v1.365c.313-.538.706-.934 1.181-1.192.483-.266 1.051-.396 1.71-.396 1.098 0 1.99.437 2.676 1.312.693.868 1.037 2.015 1.037 3.442 0 1.419-.345 2.563-1.037 3.441-.685.868-1.578 1.302-2.677 1.302-.658 0-1.226-.127-1.709-.386-.475-.265-.868-.668-1.181-1.202Zm5.057-3.155c0-1.092-.227-1.95-.682-2.574-.44-.623-1.054-.937-1.843-.937-.785 0-1.41.314-1.864.937-.448.624-.672 1.482-.672 2.574 0 1.092.224 1.95.672 2.573.455.617 1.075.927 1.864.927.785 0 1.402-.31 1.843-.927.455-.624.682-1.481.682-2.573Zm5.447 3.155v4.792h-1.495V20.573h1.495v1.365c.313-.538.703-.934 1.171-1.192.482-.266 1.054-.396 1.72-.396 1.091 0 1.98.437 2.665 1.312.693.868 1.037 2.015 1.037 3.442 0 1.419-.344 2.563-1.037 3.441-.685.868-1.574 1.302-2.666 1.302-.665 0-1.237-.127-1.719-.386-.468-.265-.861-.668-1.171-1.202Zm5.047-3.155c0-1.092-.228-1.95-.683-2.574-.44-.623-1.054-.937-1.843-.937-.785 0-1.409.314-1.863.937-.441.624-.662 1.482-.662 2.574 0 1.092.22 1.95.662 2.573.454.617 1.075.927 1.863.927.786 0 1.403-.31 1.843-.927.455-.624.683-1.481.683-2.573Zm12.233 2.79v-3.235h-2.656v-1.343h4.275v5.18a7.163 7.163 0 0 1-2.088 1.017 8.467 8.467 0 0 1-2.421.334c-1.888 0-3.363-.55-4.427-1.65-1.058-1.099-1.588-2.632-1.588-4.599s.53-3.5 1.588-4.599c1.064-1.106 2.542-1.66 4.427-1.66.785 0 1.53.1 2.228.296.713.19 1.368.475 1.964.854v1.74a6.503 6.503 0 0 0-1.922-1.161 5.955 5.955 0 0 0-2.136-.386c-1.471 0-2.58.41-3.328 1.23-.734.827-1.099 2.057-1.099 3.683s.365 2.852 1.099 3.672c.748.82 1.857 1.23 3.328 1.23.575 0 1.092-.048 1.547-.141.448-.097.85-.252 1.209-.462Zm10.066-2.832h-1.474c-1.203 0-2.033.138-2.495.417-.461.272-.692.74-.692 1.406 0 .53.172.95.52 1.26.345.307.817.459 1.416.459.827 0 1.488-.293 1.984-.875.497-.582.745-1.361.745-2.333v-.334h-.004Zm1.485-.61v5.161h-1.485v-1.375c-.337.552-.761.958-1.26 1.224-.51.258-1.13.385-1.864.385-.924 0-1.66-.258-2.209-.775-.544-.523-.813-1.223-.813-2.098 0-1.01.338-1.777 1.017-2.301.685-.517 1.701-.775 3.052-.775h2.077v-.141c0-.686-.224-1.216-.672-1.589-.447-.372-1.078-.558-1.89-.558-.518 0-1.017.062-1.506.183-.49.12-.961.31-1.416.558v-1.374a9.668 9.668 0 0 1 1.588-.47 6.995 6.995 0 0 1 1.485-.161c1.309 0 2.287.338 2.931 1.016.645.686.965 1.713.965 3.09Zm3.063 5.161V17.056h1.484v12.557h-1.484Zm4.592 0V17.056h1.485v12.557h-1.485Zm12.281-4.895v.733h-6.828c.062 1.017.365 1.799.917 2.34.554.53 1.326.792 2.311.792.569 0 1.12-.069 1.65-.203a7.27 7.27 0 0 0 1.599-.63v1.405a9.372 9.372 0 0 1-1.64.52 8.454 8.454 0 0 1-1.698.172c-1.44 0-2.581-.42-3.432-1.26-.84-.834-1.26-1.968-1.26-3.4 0-1.486.399-2.66 1.202-3.521.799-.876 1.881-1.313 3.235-1.313 1.216 0 2.174.393 2.88 1.181.709.78 1.064 1.84 1.064 3.184Zm-6.786-.427h5.301c-.013-.814-.244-1.465-.692-1.954-.441-.482-1.027-.723-1.76-.723-.827 0-1.492.234-1.995.703-.496.468-.779 1.126-.854 1.974Zm14.4-3.859.01 1.526a2.08 2.08 0 0 0-.551-.213c-.2-.049-.41-.073-.641-.073-.841 0-1.488.276-1.943.824-.448.544-.672 1.326-.672 2.35v4.764h-1.484v-9.037h1.484v1.406c.314-.551.72-.958 1.223-1.223.503-.272 1.11-.407 1.823-.407.103 0 .217.01.344.032.121.006.259.024.407.051Zm9.301.141-3.968 9.874c-.421 1.078-.831 1.784-1.23 2.115-.4.327-.934.49-1.599.49h-1.192V31.81h.875c.407 0 .727-.1.958-.296.224-.19.472-.648.744-1.375l.276-.672-3.666-8.895h1.578l2.828 7.063 2.818-7.063h1.578ZM41.393 7.056c-1.782 0-2.97 1.359-2.97 3.276 0 1.917 1.188 3.276 2.97 3.276 1.782 0 2.97-1.359 2.97-3.276 0-1.917-1.188-3.276-2.97-3.276Zm0 5.571c-1.17 0-1.872-.954-1.872-2.295s.702-2.295 1.872-2.295c1.17 0 1.881.954 1.881 2.295s-.71 2.295-1.88 2.295ZM44.792 7.164v.963h1.998V13.5h1.071V8.127h1.99v-.963h-5.059ZM53.018 10.197l2.772-3.033h-1.305L51.947 9.9V7.164h-1.071V13.5h1.07v-2.916l2.548 2.916h1.35l-2.826-3.303ZM56.668 7.164V13.5h1.07v-2.187h1.26c1.342 0 2.16-.936 2.16-2.079 0-1.152-.782-2.07-2.186-2.07h-2.304Zm1.07 3.213V8.109h1.126c.783 0 1.206.459 1.206 1.125 0 .666-.441 1.143-1.206 1.143h-1.125ZM64.93 7.056c-1.782 0-2.97 1.359-2.97 3.276 0 1.917 1.188 3.276 2.97 3.276 1.782 0 2.97-1.359 2.97-3.276 0-1.917-1.188-3.276-2.97-3.276Zm0 5.571c-1.17 0-1.872-.954-1.872-2.295s.702-2.295 1.872-2.295c1.17 0 1.881.954 1.881 2.295s-.71 2.295-1.88 2.295ZM71.661 6.615c.927 0 1.54-.603 1.557-1.476h-.837c0 .405-.252.747-.72.747-.468 0-.72-.342-.72-.747h-.837c.018.873.63 1.476 1.557 1.476Zm-1.539 5.184V7.164H69.06V13.5h1.062L73.2 8.865V13.5h1.053V7.164H73.2l-3.078 4.635ZM75.29 7.164v.963h1.998V13.5h1.071V8.127h1.99v-.963H75.29ZM85.505 7.164h-4.131V13.5h4.13v-.963h-3.06v-1.809h2.89v-.936h-2.89V8.127h3.06v-.963ZM92.26 10.188c.404-.171.827-.621.827-1.377 0-.918-.666-1.647-1.953-1.647h-2.448V13.5h2.53c1.304 0 2.114-.747 2.114-1.8 0-.918-.603-1.377-1.07-1.512Zm-.253-1.242c0 .486-.315.864-.98.864h-1.27V8.082h1.224c.648 0 1.026.324 1.026.864Zm-2.25 3.636v-1.89h1.377c.675 0 1.107.36 1.107.945 0 .603-.459.945-1.143.945h-1.34Z" fill="#fff"/><rect x="8" y="7" width="26" height="26" rx="4" fill="#C61633"/><path fill-rule="evenodd" clip-rule="evenodd" d="m19.063 23.052-.319.682h-.709l1.512-3.308h.613l1.512 3.308h-.731l-.308-.682h-1.57Zm.251-.6h1.057l-.53-1.182-.527 1.182Zm11.222-2.026h.698v3.308h-.698v-3.308Zm-2.741 2.708h1.916v.6h-2.604v-3.308h2.53v.61h-1.842v.672h1.272v.61h-1.272v.816Zm-1.982-2.707h.731l-1.196 3.317h-.591l-.785-2.177-.785 2.177h-.573l-1.207-3.317h.752l.763 2.28.774-2.28h.573l.785 2.28.76-2.28Zm-8.835 0h.699V22.3c0 .947-.541 1.495-1.494 1.495-.932 0-1.473-.541-1.473-1.475V20.43h.699v1.874c0 .558.276.854.785.854.508 0 .784-.296.784-.833v-1.898Zm-3.937 0h.698v3.317h-.698V22.39h-1.577v1.354h-.698v-3.317h.698v1.333h1.577v-1.334Zm7.957-4.214c-2.425 0-4.382-1.891-4.382-4.213h.613c0 1.995 1.695 3.614 3.77 3.614 2.074 0 3.768-1.62 3.768-3.614h.613c0 2.319-1.967 4.213-4.382 4.213Z" fill="#fff"/></svg>