<svg width="24" height="24" viewBox="0 0 32 32" xmlns="http://www.w3.org/2000/svg" data-marker="SocialIcon.Social"><path d="M21.333 10 7.5 14.165c-.972.38-.955.918-.167 1.168l2.305 1.196c.777.404 1.702.4 2.475-.009l6.307-3.335c.392-.26.755-.113.458.148l-5.368 4.381a.667.667 0 0 0-.054.984l3.872 3.942a.933.933 0 0 0 1.557-.376l3.47-11.109-.001.002c.213-.996-.362-1.395-1.02-1.157z"/><path fill-rule="evenodd" clip-rule="evenodd" d="M0 6.667v18.666A6.667 6.667 0 0 0 6.667 32h18.666A6.667 6.667 0 0 0 32 25.333V6.667A6.667 6.667 0 0 0 25.333 0H6.667A6.667 6.667 0 0 0 0 6.667zM16 4C9.373 4 4 9.373 4 16s5.373 12 12 12 12-5.373 12-12S22.627 4 16 4z"/></svg>