<svg width="24" height="24" viewBox="0 0 32 32" xmlns="http://www.w3.org/2000/svg" data-marker="SocialIcon.Social"><path fill-rule="evenodd" clip-rule="evenodd" d="M0 6.667v18.666A6.667 6.667 0 0 0 6.667 32h18.666A6.667 6.667 0 0 0 32 25.333V6.667A6.667 6.667 0 0 0 25.333 0H6.667A6.667 6.667 0 0 0 0 6.667zm23.014 9.443c-.246.389-.345.582 0 1.017.026.036.156.167.353.365.834.836 2.86 2.87 3.218 3.966.194.645-.143.971-.807.971h-2.33c-.62 0-.934-.342-1.613-1.082a28.426 28.426 0 0 0-1.115-1.166c-1.385-1.31-1.978-1.48-2.323-1.48-.631 0-.63.177-.615 1.82.003.291.006.629.006 1.02 0 .562-.181.888-1.665.888-2.468 0-5.18-1.47-7.107-4.186-2.891-3.977-3.683-6.988-3.683-7.593 0-.343.134-.65.799-.65h2.33c.598 0 .823.257 1.053.89 1.139 3.262 3.06 6.113 3.853 6.113.297 0 .431-.136.431-.875v-3.37c-.054-.96-.395-1.376-.647-1.684-.156-.19-.279-.338-.279-.55 0-.252.221-.524.593-.524h3.663c.491 0 .657.26.657.842v4.533c0 .485.227.656.372.656.296 0 .546-.17 1.088-.702 1.678-1.84 2.864-4.68 2.864-4.68.146-.343.42-.649 1.013-.649h2.33c.704 0 .85.357.704.842l-.002.001c-.293 1.333-3.137 5.262-3.141 5.267z"/></svg>