<svg xmlns="http://www.w3.org/2000/svg" width="120" height="40" fill="none"><rect width="120" height="40" rx="8" fill="#000"/><path d="M24.862 20.3c0-2.8 2.306-4.1 2.406-4.2-1.303-1.9-3.308-2.1-4.01-2.2-1.704-.2-3.308 1-4.21 1-.902 0-2.206-1-3.61-1-1.804 0-3.508 1.1-4.51 2.7-1.905 3.3-.502 8.3 1.403 11 .902 1.3 2.005 2.8 3.409 2.8 1.403-.1 1.904-.9 3.609-.9 1.704 0 2.105.9 3.609.9 1.503 0 2.406-1.3 3.308-2.7 1.103-1.5 1.504-3 1.504-3.1 0 .1-2.908-1-2.908-4.3ZM22.055 12.2c.702-.9 1.304-2.2 1.103-3.5-1.103 0-2.406.7-3.208 1.7-.702.8-1.303 2.1-1.103 3.4 1.203 0 2.507-.7 3.208-1.6ZM42.406 27.1h-4.712l-1.103 3.4h-2.005l4.512-12.4h2.005l4.511 12.4h-2.005l-1.203-3.4Zm-4.21-1.5h3.809L40.1 20.1H40l-1.805 5.5ZM55.338 26c0 2.8-1.503 4.6-3.81 4.6-1.303 0-2.305-.6-2.806-1.6v4.5h-1.905v-12h1.804V23c.502-1 1.604-1.6 2.908-1.6 2.205-.1 3.81 1.8 3.81 4.6Zm-2.005 0c0-1.8-.902-3-2.406-3-1.403 0-2.406 1.2-2.406 3s1.003 3 2.406 3c1.504 0 2.406-1.2 2.406-3ZM65.263 26c0 2.8-1.504 4.6-3.81 4.6-1.303 0-2.305-.6-2.806-1.6v4.5h-1.905v-12h1.804V23c.502-1 1.604-1.6 2.908-1.6 2.305-.1 3.81 1.8 3.81 4.6Zm-1.905 0c0-1.8-.902-3-2.406-3-1.403 0-2.406 1.2-2.406 3s1.003 3 2.406 3c1.504 0 2.406-1.2 2.406-3ZM71.88 27c.1 1.2 1.303 2 3.007 2 1.604 0 2.707-.8 2.707-1.9 0-1-.702-1.5-2.306-1.9l-1.604-.4c-2.306-.6-3.308-1.6-3.308-3.3 0-2.1 1.905-3.6 4.511-3.6 2.607 0 4.411 1.5 4.511 3.6h-1.904c-.1-1.2-1.103-2-2.607-2-1.504 0-2.506.8-2.506 1.9 0 .9.702 1.4 2.306 1.8l1.403.3c2.507.6 3.61 1.6 3.61 3.4 0 2.3-1.906 3.8-4.813 3.8-2.807 0-4.611-1.4-4.712-3.7h1.705ZM83.509 19.3v2.1h1.704v1.5h-1.704v5c0 .8.3 1.1 1.103 1.1h.601v1.5c-.2.1-.601.1-1.002.1-1.805 0-2.507-.7-2.507-2.4V23h-1.303v-1.5h1.303v-2.1h1.805v-.1ZM86.316 26c0-2.8 1.704-4.6 4.31-4.6 2.607 0 4.311 1.8 4.311 4.6 0 2.9-1.704 4.6-4.31 4.6-2.707 0-4.311-1.8-4.311-4.6Zm6.717 0c0-2-.903-3.1-2.406-3.1-1.504 0-2.406 1.1-2.406 3.1s.902 3.1 2.406 3.1c1.503 0 2.406-1.2 2.406-3.1ZM96.441 21.4h1.805V23c.3-1 1.102-1.6 2.205-1.6.301 0 .501 0 .602.1v1.7c-.101-.1-.502-.1-.802-.1-1.203 0-1.905.8-1.905 2.1v5.4H96.44v-9.2ZM109.674 27.8c-.2 1.6-1.905 2.8-3.91 2.8-2.606 0-4.31-1.8-4.31-4.6s1.604-4.7 4.21-4.7c2.506 0 4.11 1.7 4.11 4.5v.6h-6.416v.1c0 1.5 1.003 2.6 2.406 2.6 1.003 0 1.805-.5 2.106-1.3h1.804Zm-6.316-2.7h4.512c0-1.4-.903-2.3-2.206-2.3s-2.205 1-2.306 2.3ZM36.792 11.3h.802c.702 0 1.103-.4 1.103-1s-.401-.9-1.103-.9-1.203.4-1.203.9h-.902c.1-1.1.902-1.7 2.105-1.7 1.203 0 2.005.7 2.005 1.6 0 .7-.401 1.2-1.103 1.4v.1c.802.1 1.303.6 1.303 1.4 0 1-1.002 1.8-2.205 1.8-1.303 0-2.206-.7-2.206-1.8h.903c.1.6.601.9 1.403.9s1.303-.4 1.303-1-.5-1-1.303-1h-.802v-.7h-.1ZM40.902 13.4c0-.8.602-1.3 1.704-1.3l1.203-.1v-.4c0-.5-.3-.7-.902-.7-.501 0-.802.2-.902.5h-.902c.1-.8.802-1.3 1.804-1.3 1.103 0 1.805.6 1.805 1.5v3.1h-.903v-.6h-.1c-.3.5-.802.7-1.403.7-.702 0-1.404-.6-1.404-1.4Zm2.907-.4v-.4l-1.102.1c-.602 0-.903.3-.903.6 0 .4.401.6.802.6.702.1 1.203-.3 1.203-.9ZM47.118 10.9v3.8h-.903v-4.5h3.008v.7h-2.105ZM54.536 12.4c0 1.4-.702 2.3-1.904 2.3-.602 0-1.203-.3-1.404-.8h-.1v2.2h-.903v-6h.903v.7h.1c.3-.5.802-.8 1.404-.8 1.203.1 1.904 1 1.904 2.4Zm-.902 0c0-1-.501-1.5-1.203-1.5-.702 0-1.203.6-1.203 1.5s.501 1.5 1.203 1.5c.802.1 1.203-.5 1.203-1.5ZM55.74 16.3v-.8h.3c.401 0 .702-.2.802-.6l.1-.2-1.604-4.5h1.003l1.102 3.6h.1l1.104-3.6h.902l-1.705 4.7c-.4 1.1-.802 1.4-1.704 1.4h-.4ZM60.25 13.4h.903c.1.4.501.6 1.002.6.602 0 1.003-.3 1.003-.7 0-.4-.3-.6-1.003-.6h-.701V12h.701c.502 0 .802-.2.802-.6 0-.3-.3-.6-.802-.6-.5 0-.902.2-.902.6h-.902c.1-.8.802-1.3 1.804-1.3 1.103 0 1.705.5 1.705 1.2 0 .5-.301.8-.702.9v.1c.601.1.902.5.902 1 0 .9-.702 1.4-1.804 1.4-1.103.1-1.905-.4-2.005-1.3ZM65.263 14.7v-4.5h.902v3.1l2.106-3.1h.902v4.5h-.902v-3.1h-.1l-2.106 3.1h-.802ZM73.985 10.9H72.58v3.8h-.902v-3.8h-1.403v-.7h3.709v.7ZM78.797 13.5c-.2.8-.902 1.3-2.005 1.3-1.303 0-2.105-.9-2.105-2.3s.802-2.4 2.105-2.4 2.005.9 2.005 2.3v.3h-3.208c0 .8.501 1.3 1.203 1.3.501 0 .902-.2 1.103-.5h.902ZM75.689 12h2.306c0-.7-.501-1.2-1.103-1.2-.702.1-1.203.5-1.203 1.2ZM82.606 10.2h2.006c.902 0 1.403.4 1.403 1.1 0 .5-.3.9-.802 1v.1c.602.1 1.003.5 1.003 1 0 .8-.602 1.3-1.604 1.3h-2.106v-4.5h.1Zm.903.7V12h.902c.501 0 .802-.2.802-.6 0-.4-.2-.6-.702-.6H83.51v.1Zm0 1.8V14h1.103c.5 0 .802-.2.802-.7 0-.5-.301-.7-.903-.7H83.51v.1Z" fill="#fff"/></svg>